<svg width="24" height="24" viewBox="0 0 24 24" fill="none" xmlns="http://www.w3.org/2000/svg">
<path d="M22.1457 3.1448C21.7857 2.83952 21.2203 2.79584 20.6356 3.03056H20.6347C20.0198 3.27728 3.2294 10.4792 2.54588 10.7734C2.42156 10.8166 1.3358 11.2218 1.44764 12.1242C1.54748 12.9378 2.42012 13.2747 2.52668 13.3136L6.79532 14.7752C7.07852 15.7179 8.12252 19.196 8.3534 19.939C8.4974 20.4022 8.73212 21.0109 9.14348 21.1362C9.50444 21.2754 9.86348 21.1482 10.0958 20.9658L12.7056 18.5451L16.9185 21.8307L17.0188 21.8907C17.3049 22.0174 17.579 22.0808 17.8406 22.0808C18.0427 22.0808 18.2366 22.0429 18.4219 21.967C19.0531 21.7078 19.3056 21.1064 19.332 21.0382L22.4788 4.68128C22.6708 3.80768 22.404 3.3632 22.1457 3.1448ZM10.56 15.3598L9.11996 19.1998L7.67996 14.3998L18.72 6.23984L10.56 15.3598Z" fill="white"/>
</svg>
